<?xml version="1.0" encoding="UTF-8" standalone="no"?>
<!-- Created with Inkscape (http://www.inkscape.org/) -->

<svg
   xmlns:dc="http://purl.org/dc/elements/1.1/"
   xmlns:cc="http://creativecommons.org/ns#"
   xmlns:rdf="http://www.w3.org/1999/02/22-rdf-syntax-ns#"
   xmlns:svg="http://www.w3.org/2000/svg"
   xmlns="http://www.w3.org/2000/svg"
   xmlns:xlink="http://www.w3.org/1999/xlink"
   xmlns:sodipodi="http://sodipodi.sourceforge.net/DTD/sodipodi-0.dtd"
   xmlns:inkscape="http://www.inkscape.org/namespaces/inkscape"
   version="1.1"
   id="svg2"
   width="44"
   height="44"
   viewBox="0 0 44 44"
   sodipodi:docname="movebuttons.svg"
   inkscape:export-filename="D:\MS VS Projects\Contacts\Contacts\Resources\upa1.png"
   inkscape:export-xdpi="96"
   inkscape:export-ydpi="96"
   inkscape:version="0.92.1 r15371">
  <metadata
     id="metadata8">
    <rdf:RDF>
      <cc:Work
         rdf:about="">
        <dc:format>image/svg+xml</dc:format>
        <dc:type
           rdf:resource="http://purl.org/dc/dcmitype/StillImage" />
        <dc:title></dc:title>
      </cc:Work>
    </rdf:RDF>
  </metadata>
  <defs
     id="defs6">
    <linearGradient
       inkscape:collect="always"
       id="linearGradient4006">
      <stop
         style="stop-color:#1a1a1a;stop-opacity:1;"
         offset="0"
         id="stop4002" />
      <stop
         style="stop-color:#1a1a1a;stop-opacity:0;"
         offset="1"
         id="stop4004" />
    </linearGradient>
    <linearGradient
       inkscape:collect="always"
       xlink:href="#linearGradient4006"
       id="linearGradient4008"
       x1="22.192657"
       y1="22.413773"
       x2="23.101086"
       y2="-2.4038272"
       gradientUnits="userSpaceOnUse"
       gradientTransform="matrix(-0.87950554,0,0,0.91531033,44.026957,3.7525789)" />
    <linearGradient
       gradientTransform="matrix(-1.4943064,0,0,1.331891,57.605027,-3.6767611)"
       inkscape:collect="always"
       xlink:href="#linearGradient4006"
       id="linearGradient4008-9"
       x1="23.023804"
       y1="24.242086"
       x2="23.184206"
       y2="2.4750061"
       gradientUnits="userSpaceOnUse" />
  </defs>
  <sodipodi:namedview
     pagecolor="#ffffff"
     bordercolor="#666666"
     borderopacity="1"
     objecttolerance="10"
     gridtolerance="10"
     guidetolerance="10"
     inkscape:pageopacity="0"
     inkscape:pageshadow="2"
     inkscape:window-width="1366"
     inkscape:window-height="746"
     id="namedview4"
     showgrid="false"
     inkscape:zoom="11.313709"
     inkscape:cx="12.81624"
     inkscape:cy="23.237661"
     inkscape:window-x="-8"
     inkscape:window-y="-8"
     inkscape:window-maximized="1"
     inkscape:current-layer="svg2" />
  <path
     style="stroke-width:0.15802422"
     d="M 25.050205,33.677911 C 26.020884,32.533954 32.030695,21.103078 36.706991,11.50629 39.091785,6.6121619 39.26112,6.1376639 38.690508,5.9481859 36.687087,5.2829279 13.476061,5.1744849 10.775922,5.8177679 c -0.38996,0.0929 -0.546335,0.225313 -0.582224,0.49299 -0.150192,1.120224 13.681938,27.7359971 14.414307,27.7359971 0.07107,0 0.270065,-0.16598 0.4422,-0.368844 z"
     id="path3824"
     inkscape:connector-curvature="0"
     inkscape:export-xdpi="96"
     inkscape:export-ydpi="96"
     inkscape:export-filename="D:\MS VS Projects\Contacts\Contacts\Resources\downa1.png" />
  <path
     style="fill:none;stroke:#000000;stroke-width:1.09700274px;stroke-linecap:butt;stroke-linejoin:miter;stroke-opacity:1"
     d="m 29.850164,15.607879 c -0.632709,0 -1.26542,0 -1.898129,0 -0.0709,0 -0.506673,0.01823 -0.542323,0 -0.05715,-0.02923 -0.07842,-0.109452 -0.13558,-0.138688 -0.05758,-0.02945 -0.766039,0.0061 -0.813485,0 -0.228663,-0.02923 -0.448869,-0.112657 -0.677903,-0.138688 -0.179669,-0.02041 -0.363365,0.02615 -0.542323,0 -0.141478,-0.02068 -0.265771,-0.114653 -0.406742,-0.138688 -0.222893,-0.038 -0.451936,0 -0.677902,0 -0.451937,0 -0.903871,0 -1.355807,0 -0.406742,0 -0.813484,0 -1.220225,0 -0.135582,0 -0.275211,-0.03364 -0.406743,0 -0.09804,0.02508 -0.173123,0.113617 -0.27116,0.138688 -0.0877,0.02242 -0.180777,0 -0.271163,0 -0.04519,0 -0.09516,-0.02068 -0.13558,0 -0.05715,0.02923 -0.07842,0.109452 -0.13558,0.138688 -0.08233,0.0421 -0.731157,-0.0421 -0.813485,0 -0.05715,0.02924 -0.07843,0.109453 -0.135581,0.138688 -0.04042,0.02068 -0.09038,0 -0.13558,0 -0.04519,0 -0.09038,0 -0.13558,0 -0.04979,0 -0.536868,-0.0056 -0.542324,0 -0.03195,0.03269 0.03195,0.106002 0,0.138687 -0.03195,0.03269 -0.11537,-0.04135 -0.13558,0 -0.06064,0.124045 0,0.277375 0,0.416063 0,0.462292 0,0.924583 0,1.386877 0,0.369833 0,0.739668 0,1.109501 0,0.111648 -0.02837,0.467702 0,0.55475 0.09431,0.289404 0.312435,0.404036 0.406742,0.693439 0.01429,0.04386 0,0.09245 0,0.138687 0,0.236398 -0.0143,0.248138 0.135581,0.554751 0.02858,0.05847 0.107,0.08022 0.135581,0.138688 0.0202,0.04135 -0.0143,0.09483 0,0.138687 0.327355,1.004573 -0.03909,-0.218656 0.27116,0.416064 0.0202,0.04135 -0.0202,0.09733 0,0.138687 0.05715,0.116951 0.213995,0.160423 0.271162,0.277375 0.0202,0.04135 -0.0202,0.09734 0,0.138687 0.3086,0.315674 0.03584,-0.02873 0.13558,0.277376 0.327356,1.004571 -0.03909,-0.218656 0.271162,0.416063 0.0202,0.04135 -0.03195,0.106001 0,0.138687 0.329299,0.336845 0.19909,-0.04124 0.406742,0.277375 0.05605,0.08601 0.09038,0.184917 0.13558,0.277376 0.09038,0.09245 0.194465,0.17277 0.271163,0.277375 0.06063,0.08271 0.06411,0.20428 0.13558,0.277375 0.03195,0.03269 0.103626,-0.03269 0.13558,0 0.03195,0.03269 -0.03195,0.106003 0,0.138689 0.03195,0.03269 0.115369,-0.04135 0.13558,0 0.04042,0.0827 -0.04042,0.194676 0,0.277375 0.0202,0.04135 0.103628,-0.03269 0.135581,0 0.07146,0.0731 0.06412,0.20428 0.135582,0.277374 0.07146,0.0731 0.187076,0.08135 0.27116,0.138688 0.05319,0.03627 0.0824,0.102419 0.135581,0.138688 0.02525,0.01723 0.533635,0.268488 0.542323,0.277375 0.03195,0.03269 -0.03195,0.106002 0,0.138687 0.03195,0.03269 0.09038,0 0.13558,0 0.0452,0 0.09038,0 0.135581,0 0.09038,0 0.195955,0.05128 0.271161,0 0.08408,-0.05734 0.07495,-0.194676 0.13558,-0.277374 0.402508,-0.548977 0.144246,-0.009 0.677904,-0.554752 0.115221,-0.117861 0.166843,-0.288013 0.271162,-0.416061 0.122748,-0.150675 0.271161,-0.277377 0.406742,-0.416064 0.13558,-0.138687 0.259442,-0.290501 0.406741,-0.416062 0.12518,-0.106709 0.29152,-0.159514 0.406743,-0.277376 0.11522,-0.117862 0.166844,-0.288014 0.27116,-0.416063 0.12275,-0.150675 0.281959,-0.267146 0.406743,-0.416063 0.147057,-0.175499 0.262079,-0.377179 0.406741,-0.55475 0.08184,-0.100455 0.194465,-0.172771 0.271162,-0.277375 0.06064,-0.08271 0.07245,-0.196656 0.13558,-0.277376 0.159705,-0.204206 0.388931,-0.345541 0.542323,-0.55475 0.09038,-0.138689 0.180774,-0.277376 0.271161,-0.416063 0,-0.04623 -0.0202,-0.09734 0,-0.138688 0.02858,-0.05847 0.100125,-0.08429 0.135581,-0.138688 0.01683,-0.02583 0.262472,-0.545863 0.271162,-0.55475 0.03195,-0.03269 0.103626,0.03269 0.135579,0 0.0371,-0.03795 -0.03679,-0.479514 0,-0.55475 0.02858,-0.05847 0.107001,-0.08022 0.135581,-0.138689 0.0202,-0.04135 0,-0.09245 0,-0.138687 0,-0.09245 -0.02193,-0.187678 0,-0.277376 0.02452,-0.100287 0.103627,-0.179308 0.135581,-0.277374 0.01429,-0.04386 -0.0202,-0.09734 0,-0.138688 0.02858,-0.05847 0.107,-0.08022 0.135581,-0.138688 0.0202,-0.04135 -0.0202,-0.09734 0,-0.138688 0.02858,-0.05847 0.107,-0.08022 0.135581,-0.138687 0.0202,-0.04135 -0.0202,-0.09734 0,-0.138688 0.167536,-0.342753 0.13558,0.04788 0.13558,-0.277375"
     id="path3794"
     inkscape:connector-curvature="0"
     inkscape:export-filename="D:\MS VS Projects\Contacts\Contacts\Resources\downa1.png"
     inkscape:export-xdpi="96"
     inkscape:export-ydpi="96" />
  <path
     style="fill:none;stroke:#000000;stroke-width:1.09700274px;stroke-linecap:butt;stroke-linejoin:miter;stroke-opacity:1"
     d="m 25.079084,19.081899 3.796258,-0.416062"
     id="path3810"
     inkscape:connector-curvature="0"
     inkscape:export-filename="D:\MS VS Projects\Contacts\Contacts\Resources\downa1.png"
     inkscape:export-xdpi="96"
     inkscape:export-ydpi="96" />
  <path
     style="fill:none;stroke:#000000;stroke-width:1.09700274px;stroke-linecap:butt;stroke-linejoin:miter;stroke-opacity:1"
     d="m 24.754862,18.742137 -2.304871,6.657006"
     id="path3812"
     inkscape:connector-curvature="0"
     inkscape:export-filename="D:\MS VS Projects\Contacts\Contacts\Resources\downa1.png"
     inkscape:export-xdpi="96"
     inkscape:export-ydpi="96" />
  <path
     style="fill:none;stroke:#000000;stroke-width:1.09700274px;stroke-linecap:butt;stroke-linejoin:miter;stroke-opacity:1"
     d="M 31.392424,12.444878 18.512261,12.167502 25.833616,25.204141 Z"
     id="path3814"
     inkscape:connector-curvature="0"
     inkscape:export-filename="D:\MS VS Projects\Contacts\Contacts\Resources\downa1.png"
     inkscape:export-xdpi="96"
     inkscape:export-ydpi="96" />
  <path
     style="stroke-width:0.13712534"
     d="m 25.670441,31.238047 c 1.221809,-1.882916 4.67703,-8.064917 7.061712,-12.634653 0.358247,-0.686504 0.817014,-1.560236 1.019484,-1.941627 0.202468,-0.381391 0.629165,-1.192713 0.948216,-1.802939 0.319051,-0.610226 0.781337,-1.489767 1.027301,-1.954535 0.920271,-1.738914 2.092828,-4.2072541 2.092828,-4.4055911 0,-0.222513 -0.02816,-0.226508 -3.796259,-0.538784 -2.879056,-0.238598 -16.605796,-0.234623 -19.184662,0.0056 -2.298094,0.214029 -2.643821,0.278844 -2.643821,0.495641 0,0.184396 1.563894,3.4325651 2.445953,5.0801811 0.306269,0.572087 0.836726,1.570638 1.178791,2.219001 0.342067,0.648366 1.273829,2.364626 2.070583,3.81391 0.796753,1.449286 1.68179,3.071931 1.966745,3.605878 0.284957,0.533949 0.771008,1.40768 1.08011,1.941628 0.309102,0.533947 0.827432,1.438884 1.151849,2.010971 1.354224,2.388087 2.583589,4.398903 2.827341,4.624551 0.251464,0.232787 0.277527,0.214837 0.753829,-0.51919 z"
     id="path3816"
     inkscape:connector-curvature="0"
     inkscape:export-filename="D:\MS VS Projects\Contacts\Contacts\Resources\downa1.png"
     inkscape:export-xdpi="96"
     inkscape:export-ydpi="96" />
  <path
     style="stroke-width:0.13712534"
     d="M 25.795795,31.233779 C 28.094868,27.753381 37.884764,9.4368959 37.884764,8.6158249 c 0,-0.319597 -0.04032,-0.327408 -3.118354,-0.603941 -2.713797,-0.24381 -17.828386,-0.240348 -20.269307,0.0047 -2.042846,0.205037 -2.23708,0.250932 -2.23708,0.528595 0,1.055641 12.105479,23.1232451 12.84455,23.4148851 0.094,0.0371 0.397919,-0.282218 0.691222,-0.726228 z"
     id="path3818"
     inkscape:connector-curvature="0"
     inkscape:export-filename="D:\MS VS Projects\Contacts\Contacts\Resources\downa1.png"
     inkscape:export-xdpi="96"
     inkscape:export-ydpi="96" />
  <path
     style="stroke-width:0.13712534"
     d="m 25.166858,31.372945 c 1.57387,-2.035987 12.333855,-22.1393981 12.333855,-23.0439531 0,-0.331957 -0.16738,-0.368873 -2.711613,-0.598058 -2.699604,-0.243181 -18.835696,-0.240756 -20.979415,0.0031 -1.781844,0.202735 -1.933714,0.249231 -1.933714,0.592007 0,1.079382 12.285529,23.4282421 12.878882,23.4282421 0.06445,0 0.249849,-0.171627 0.412005,-0.381391 z"
     id="path3820"
     inkscape:connector-curvature="0"
     inkscape:export-filename="D:\MS VS Projects\Contacts\Contacts\Resources\downa1.png"
     inkscape:export-xdpi="96"
     inkscape:export-ydpi="96" />
  <path
     style="stroke-width:0.13712534"
     d="M 26.199137,29.828587 C 28.161289,27.081104 38.388892,7.9138099 38.388892,6.9840729 c 0,-0.172381 -0.114778,-0.303996 -0.305055,-0.349805 -2.307509,-0.555515 -21.804109,-0.632297 -24.709575,-0.09731 -0.412156,0.07589 -0.552298,0.17102 -0.583894,0.39635 -0.06776,0.483291 2.053302,4.6629461 6.25225,12.3203491 3.575077,6.519678 6.323309,11.164354 6.605894,11.164354 0.07132,0 0.319103,-0.265242 0.550625,-0.589424 z"
     id="path3822"
     inkscape:connector-curvature="0"
     inkscape:export-filename="D:\MS VS Projects\Contacts\Contacts\Resources\downa1.png"
     inkscape:export-xdpi="96"
     inkscape:export-ydpi="96" />
  <path
     style="fill:url(#linearGradient4008-9);fill-opacity:1;stroke-width:0.13134764"
     d="m 24.949122,31.401905 c 0.790433,-0.970542 5.684293,-10.66864 9.492246,-18.810667 1.941968,-4.1522351 2.079863,-4.5548061 1.615204,-4.7155651 -1.631412,-0.564412 -20.532398,-0.656415 -22.731154,-0.110694 -0.317535,0.07882 -0.444892,0.19117 -0.474139,0.418286 -0.122264,0.950412 11.141353,23.5315521 11.737729,23.5315521 0.05782,0 0.219923,-0.14081 0.360063,-0.312939 z"
     id="path3824-7-6"
     inkscape:connector-curvature="0"
     inkscape:export-filename="D:\MS VS Projects\Contacts\Contacts\Resources\downa1.png"
     inkscape:export-xdpi="96"
     inkscape:export-ydpi="96" />
  <path
     style="fill:url(#linearGradient4008);fill-opacity:1;stroke-width:0.0835356"
     d="m 24.806635,27.859557 c 0.465226,-0.666982 3.34561,-7.331769 5.586862,-12.927182 1.142985,-2.853526 1.224146,-3.130183 0.950661,-3.240661 -0.960201,-0.387878 -12.084776,-0.451105 -13.3789,-0.07607 -0.186892,0.05416 -0.261851,0.131377 -0.279065,0.287457 -0.07196,0.653148 6.55748,16.171498 6.908489,16.171498 0.03403,0 0.12944,-0.09677 0.211923,-0.21506 z"
     id="path3824-7"
     inkscape:connector-curvature="0"
     inkscape:export-filename="D:\MS VS Projects\Contacts\Contacts\Resources\downa1.png"
     inkscape:export-xdpi="96"
     inkscape:export-ydpi="96" />
</svg>
